#!OML:ASF I:\Actors\actors\Patient Classification 1\Patient 1\Session 1\Subject1.ASF
:FULLY-SPECIFIED
:DEGREES
180
root 0.567667 17.4806 8.85957 9.58078 -2.22373 -10.267
lowerback 2.34205 0.81059 8.3056
upperback -8.75781 1.96284 2.44641
thorax -10.5496 0.382223 -2.22153
lowerneck -13.5618 -4.10741 -4.3638
upperneck 24.1279 -7.04772 8.62427
head 10.4269 -2.67724 2.8764
rclavicle 1.71949e-014 7.95139e-015
rhumerus -5.16323 22.1874 -94.0157
rradius 59.0477
rwrist 1.10993
rhand -2.85443 -41.5366
rfingers 7.12502
rthumb 22.8537 -70.2025
lclavicle 1.71949e-014 7.95139e-015
lhumerus -2.25755 -18.1734 93.5311
lradius 52.9371
lwrist 24.213
lhand -27.1312 -2.77582
lfingers 7.12502
lthumb -0.546802 27.2032
rfemur -6.39576 24.4688 26.4343
rtibia 2.54295
rfoot -9.25075 -23.0363
rtoes 1.07713
lfemur 4.3071 -46.3658 -9.63501
ltibia -4.71197
lfoot -24.1626 54.2168
ltoes 12.6361
181
root 0.563661 17.4793 8.87497 9.59655 -2.28159 -10.2452
lowerback 2.33884 0.8729 8.25916
upperback -8.69355 2.03429 2.40068
thorax -10.4651 0.423145 -2.25322
lowerneck -13.7663 -4.12149 -4.42453
upperneck 23.8458 -7.10161 8.92514
head 10.3839 -2.6734 2.97995
rclavicle -9.81499e-015 2.98177e-014
rhumerus -5.9238 24.4319 -93.4646
rradius 61.6705
rwrist 5.03751
rhand -3.4325 -41.486
rfingers 7.12502
rthumb 22.2988 -70.2194
lclavicle -9.81499e-015 2.98177e-014
lhumerus -3.41395 -21.3947 93.2626
lradius 56.0365
lwrist 17.2803
lhand -25.4769 -4.70396
lfingers 7.12502
lthumb 1.05093 25.2732
rfemur -6.3388 24.6403 26.4513
rtibia 2.53001
rfoot -9.24833 -23.1615
rtoes 0.884358
lfemur 4.46643 -46.4642 -9.75758
ltibia -4.77074
lfoot -24.2884 54.3658
ltoes 12.6245
182
root 0.550566 17.4859 8.89619 9.8221 -2.54857 -9.54743
lowerback 1.99659 1.00208 7.2988
upperback -8.69185 2.08154 2.20267
thorax -10.2512 0.523623 -1.93345
lowerneck -13.7618 -4.18249 -4.12325
upperneck 23.4631 -7.17517 8.73112
head 10.2312 -2.71068 2.84245
rclavicle -1.27471e-014 5.36719e-015
rhumerus -6.69068 26.4159 -92.9291
rradius 64.3448
rwrist 9.21704
rhand -4.73334 -41.2278
rfingers 7.12502
rthumb 21.0496 -70.1054
lclavicle -1.27471e-014 5.36719e-015
lhumerus -4.44625 -24.1211 93.1147
lradius 58.8456
lwrist 9.85449
lhand -25.0095 -6.49692
lfingers 7.12502
lthumb 1.5024 23.4775
rfemur -6.62423 25.1672 25.5224
rtibia 2.58179
rfoot -9.38473 -23.4949
rtoes 1.18176
lfemur 4.38248 -46.9891 -10.5286
ltibia -4.71471
lfoot -25.2046 54.882
ltoes 13.2569
183
root 0.54546 17.4886 8.91507 9.97255 -2.60036 -9.21703
lowerback 1.78021 1.06362 6.86517
upperback -8.727 2.10411 2.08468
thorax -10.1586 0.567035 -1.81749
lowerneck -13.4715 -4.24948 -3.36084
upperneck 22.978 -7.20459 7.91994
head 9.9404 -2.76738 2.41949
rclavicle 2.02015e-014 -7.81224e-014
rhumerus -6.91169 29.1092 -91.9594
rradius 66.3554
rwrist 12.736
rhand -7.62734 -41.4041
rfingers 7.12502
rthumb 18.2674 -70.5663
lclavicle 2.02015e-014 -7.81224e-014
lhumerus -5.36425 -26.1719 93.1383
lradius 60.8858
lwrist 2.15548
lhand -26.1955 -8.82048
lfingers 7.12502
lthumb 0.356971 21.159
rfemur -6.79106 25.3303 25.0677
rtibia 2.64802
rfoot -9.56787 -23.6155
rtoes 1.50147
lfemur 4.24796 -47.1567 -10.8198
ltibia -4.68213
lfoot -25.4673 55.0173
ltoes 13.3931
184
root 0.544931 17.4887 8.9297 10.0042 -2.49259 -9.25609
lowerback 1.73554 1.06595 6.87738
upperback -8.76731 2.10667 2.08496
thorax -10.1772 0.566163 -1.82317
lowerneck -13.2736 -4.29511 -2.97476
upperneck 22.8137 -7.24658 7.51952
head 9.81534 -2.80707 2.21015
rclavicle 1.05356e-014 -1.23246e-014
rhumerus -8.32131 29.554 -92.0309
rradius 68.8194
rwrist 18.2136
rhand -10.7926 -41.2538
rfingers 7.12502
rthumb 15.2203 -70.6739
lclavicle 1.05356e-014 -1.23246e-014
lhumerus -5.98725 -27.2326 93.3325
lradius 61.8083
lwrist -5.63969
lhand -29.0675 -12.0002
lfingers 7.12502
lthumb -2.41689 17.9659
rfemur -6.77092 25.3053 25.1323
rtibia 2.68607
rfoot -9.69027 -23.6648
rtoes 1.59728
lfemur 4.18765 -47.0051 -10.7067
ltibia -4.70646
lfoot -25.2363 54.8433
ltoes 13.2672
185
root 0.543967 17.4904 8.94269 9.96286 -2.34494 -9.29068
lowerback 1.41346 1.04047 6.79596
upperback -8.57678 2.03019 2.15768
thorax -9.77789 0.555419 -1.68628
lowerneck -13.4403 -4.28467 -3.49602
upperneck 22.8379 -7.26116 8.12239
head 9.90204 -2.78679 2.50511
rclavicle -4.77083e-015 3.65764e-014
rhumerus -8.61528 30.8911 -91.3741
rradius 70.3773
rwrist 22.6205
rhand -15.0359 -41.895
rfingers 7.12502
rthumb 11.1301 -71.5799
lclavicle -4.77083e-015 3.65764e-014
lhumerus -5.7545 -27.2007 93.4593
lradius 61.6448
lwrist -13.2166
lhand -32.4231 -15.4335
lfingers 7.12502
lthumb -5.65723 14.471
rfemur -6.66012 25.2901 25.2283
rtibia 2.68956
rfoot -9.78695 -23.7664
rtoes 1.72469
lfemur 4.19303 -46.8426 -10.6532
ltibia -4.70673
lfoot -24.9134 54.6316
ltoes 13.057
186
root 0.542565 17.4925 8.95274 9.87073 -2.13856 -9.31771
lowerback 0.946329 0.902752 6.43264
upperback -8.26287 1.78108 2.4406
thorax -9.17949 0.498134 -1.15406
lowerneck -13.717 -4.19175 -4.04032
upperneck 22.985 -7.11578 8.55124
head 10.0353 -2.70781 2.76588
rclavicle -2.01269e-014 3.1408e-014
rhumerus -8.55276 32.4732 -90.4827
rradius 71.7656
rwrist 26.4889
rhand -19.7875 -42.8592
rfingers 7.12502
rthumb 6.54494 -72.738
lclavicle -2.01269e-014 3.1408e-014
lhumerus -4.97575 -26.1743 93.6445
lradius 60.7839
lwrist -20.3082
lhand -35.4395 -17.583
lfingers 7.12502
lthumb -8.56889 12.2231
rfemur -6.51108 25.2065 25.3369
rtibia 2.70562
rfoot -9.88596 -23.854
rtoes 1.82959
lfemur 4.18899 -46.6409 -10.5979
ltibia -4.67901
lfoot -24.343 54.3531
ltoes 12.5727
187
root 0.540121 17.494 8.95994 9.76538 -1.89829 -9.31466
lowerback 0.91545 0.846017 6.37286
upperback -8.25167 1.70001 2.46519
thorax -9.15551 0.465038 -1.08759
lowerneck -13.7179 -4.19136 -3.96126
upperneck 23.2861 -7.10067 8.31674
head 10.1294 -2.71305 2.67542
rclavicle 6.55989e-015 -8.54774e-015
rhumerus -9.06944 33.1586 -90.062
rradius 73.0865
rwrist 30.3919
rhand -23.2243 -43.5685
rfingers 7.12502
rthumb 3.22651 -73.5238
lclavicle 6.55989e-015 -8.54774e-015
lhumerus -4.42665 -25.1165 93.9317
lradius 59.5431
lwrist -25.6092
lhand -37.1417 -18.7584
lfingers 7.12502
lthumb -10.2114 10.9737
rfemur -6.35639 25.1044 25.4148
rtibia 2.71747
rfoot -9.99156 -23.9652
rtoes 2.04649
lfemur 4.14744 -46.4045 -10.5413
ltibia -4.65041
lfoot -23.6321 54.023
ltoes 11.9582
188
root 0.536242 17.4949 8.96638 9.63156 -1.64475 -9.2962
lowerback 0.916053 0.761203 6.28753
upperback -8.23079 1.58178 2.48835
thorax -9.14178 0.415347 -1.00591
lowerneck -13.9598 -4.14957 -4.21437
upperneck 23.8227 -7.06011 8.4618
head 10.3825 -2.6818 2.78018
rclavicle -1.75427e-014 -4.17448e-014
rhumerus -9.5018 33.6954 -89.6405
rradius 74.2374
rwrist 33.7514
rhand -25.9023 -39.1957
rfingers 7.12502
rthumb 0.640114 -69.1744
lclavicle -1.75427e-014 -4.17448e-014
lhumerus -3.66189 -23.8035 94.1514
lradius 58.2442
lwrist -28.7781
lhand -35.3722 -16.0281
lfingers 7.12502
lthumb -8.50393 13.7807
rfemur -6.16129 25.0324 25.4994
rtibia 2.72438
rfoot -10.1561 -24.1306
rtoes 2.44506
lfemur 4.12944 -46.1136 -10.5149
ltibia -4.62899
lfoot -22.8406 53.6518
ltoes 11.2383
189
root 0.532459 17.4944 8.97117 9.49341 -1.35593 -9.3158
lowerback 0.948913 0.647322 6.25834
upperback -8.21384 1.43079 2.51176
thorax -9.15299 0.344594 -0.952554
lowerneck -14.2041 -4.04463 -4.44562
upperneck 24.2977 -6.94703 8.67715
head 10.6125 -2.60915 2.91792
rclavicle -6.03808e-015 -3.77691e-015
rhumerus -9.5945 34.403 -89.1581
rradius 75.0006
rwrist 36.1059
rhand -23.9895 -43.6551
rfingers 7.12502
rthumb 2.48748 -73.6203
lclavicle -6.03808e-015 -3.77691e-015
lhumerus -2.90053 -23.0276 94.341
lradius 56.8687
lwrist -26.9735
lhand -33.0123 -12.7355
lfingers 7.12502
lthumb -6.22606 17.153
rfemur -5.96395 24.8886 25.6383
rtibia 2.73651
rfoot -10.2813 -24.2969
rtoes 2.55596
lfemur 4.08369 -45.795 -10.4161
ltibia -4.60819
lfoot -22.0798 53.2215
ltoes 10.6088
